# xmcd CD database file
#
# Track frame offsets:
#	150
#	16607
#	30597
#	46525
#	61795
#	73542
#	88170
#	97302
#	106875
#	118997
#	129222
#	139117
#	149600
#	164550
#	176752
#	191297
#	206352
#	222285
#	240320
#	256457
#	273042
#	283770
#	297150
#	314572
#
# Disc length: 4373 seconds
#
# Revision: 2
# Processed by: cddbd v1.4b41PL1 Copyright (c) Steve Scherf et al.
# Submitted via: Feurio! 1.50.2ß - http://www.feurio.com
#
DISCID=60111318
DTITLE=Various Artist - 4x6 listen...and like it
DYEAR=1900
DGENRE=
TTITLE0=NDR-Bigband - Manhatten
TTITLE1=NDR-Bigband - Mambo Bambo
TTITLE2=NDR-Bigband - Atlantic
TTITLE3=NDR-Bigband - Hotline Stomp
TTITLE4=NDR-Bigband - Jana
TTITLE5=NDR-Bigband - Keep On Movin´
TTITLE6=Connly Louis Band - Munich Skyline
TTITLE7=Connly Louis Band - Shame On You
TTITLE8=Connly Louis Band - Lorona
TTITLE9=Connly Louis Band - I`m A Swingfan, Man
TTITLE10=Connly Louis Band - Matadores
TTITLE11=Connly Louis Band - It`s Joy
TTITLE12=Rico Galega Group - Starlet O`Hara
TTITLE13=Rico Galega Group - One More Song
TTITLE14=Rico Galega Group - Handshaker
TTITLE15=Rico Galega Group - Jolly Jump
TTITLE16=Rico Galega Group - Tijuana-Beat
TTITLE17=Rico Galega Group - Rainy Summer
TTITLE18=Amigos Brasileiros - Panorama Brasileiro
TTITLE19=Amigos Brasileiros - Pearls Are For Ladies
TTITLE20=Amigos Brasileiros - Solo Per Me
TTITLE21=Amigos Brasileiros - Sol De Brasil
TTITLE22=Amigos Brasileiros - Riding On A Wave
TTITLE23=Amigos Brasileiros - Spanish Gipsy
EXTD=
EXTT0=
EXTT1=
EXTT2=
EXTT3=
EXTT4=
EXTT5=
EXTT6=
EXTT7=
EXTT8=
EXTT9=
EXTT10=
EXTT11=
EXTT12=
EXTT13=
EXTT14=
EXTT15=
EXTT16=
EXTT17=
EXTT18=
EXTT19=
EXTT20=
EXTT21=
EXTT22=
EXTT23=
PLAYORDER=
